HIERARCHY
ROOT Hips
{
	OFFSET 0.00000 0.00000 0.00000
	CHANNELS 6 Xposition Yposition Zposition Zrotation Yrotation Xrotation 
	JOINT LHipJoint
	{
		OFFSET 0 0 0
		CHANNELS 3 Zrotation Yrotation Xrotation
		JOINT LeftHip
		{
			OFFSET 1.88772 -1.62769 0.85636
			CHANNELS 3 Zrotation Yrotation Xrotation
			JOINT LeftKnee
			{
				OFFSET 2.39836 -6.58946 0.00000
				CHANNELS 3 Zrotation Yrotation Xrotation
				JOINT LeftAnkle
				{
					OFFSET 2.78523 -7.65237 0.00000
					CHANNELS 3 Zrotation Yrotation Xrotation
					JOINT LeftToe
					{
						OFFSET 0.19551 -0.53715 1.90694
						CHANNELS 3 Zrotation Yrotation Xrotation
						End Site
						{
							OFFSET 0.00000 -0.00000 0.99735
						}
					}
				}
			}
		}
	}
	JOINT RHipJoint
	{
		OFFSET 0 0 0
		CHANNELS 3 Zrotation Yrotation Xrotation
		JOINT RightHip
		{
			OFFSET -1.74282 -1.62769 0.85636
			CHANNELS 3 Zrotation Yrotation Xrotation
			JOINT RightKnee
			{
				OFFSET -2.36062 -6.48575 0.00000
				CHANNELS 3 Zrotation Yrotation Xrotation
				JOINT RightAnkle
				{
					OFFSET -2.76258 -7.59014 0.00000
					CHANNELS 3 Zrotation Yrotation Xrotation
					JOINT RightToe
					{
						OFFSET -0.19308 -0.53048 2.03952
						CHANNELS 3 Zrotation Yrotation Xrotation
						End Site
						{
							OFFSET -0.00000 -0.00000 1.06031
						}
					}
				}
			}
		}
	}
	JOINT lowerback
	{
		OFFSET 0 0 0
		CHANNELS 3 Zrotation Yrotation Xrotation
		JOINT Chest
		{
			OFFSET -0.08299 2.03160 -0.30721
			CHANNELS 3 Zrotation Yrotation Xrotation
			JOINT Chest2
			{
				OFFSET -0.01030 2.00603 0.13891
				CHANNELS 3 Zrotation Yrotation Xrotation
				JOINT lowerneck
				{
					OFFSET 0 0 0
					CHANNELS 3 Zrotation Yrotation Xrotation
					JOINT Neck
					{
						OFFSET 0.04282 1.69578 0.19991
						CHANNELS 3 Zrotation Yrotation Xrotation
						JOINT Head
						{
							OFFSET -0.08665 1.66622 -0.03785
							CHANNELS 3 Zrotation Yrotation Xrotation
							End Site
							{
								OFFSET -0.03699 1.83329 -0.04094
							}
						}
					}
				}
				JOINT LeftCollar
				{
					OFFSET 0 0 0
					CHANNELS 3 Zrotation Yrotation Xrotation
					JOINT LeftShoulder
					{
						OFFSET 3.04219 1.50803 -0.05347
CHANNELS 3 Zrotation Xrotation Yrotation
						JOINT LeftElbow
						{
OFFSET 0 -5.791990 0.000000
CHANNELS 3 Zrotation Xrotation Yrotation
							JOINT LeftWrist
							{
OFFSET 0 -3.499080 0.000000
CHANNELS 3 Zrotation Xrotation Yrotation
								JOINT lhand
								{
									OFFSET 0 0 0
CHANNELS 3 Zrotation Xrotation Yrotation
									JOINT LFingers
									{
OFFSET 0 -0.593860 0.000000
CHANNELS 3 Zrotation Xrotation Yrotation
										End Site
										{
OFFSET 0 -0.478790 0.000000
										}
									}
								}
								JOINT LThumb
								{
OFFSET 0 0.000000 0.000000
CHANNELS 3 Zrotation Xrotation Yrotation
									End Site
									{
OFFSET 0 -0.486100 0.486100
									}
								}
							}
						}
					}
				}
				JOINT RightCollar
				{
					OFFSET 0 0 0
					CHANNELS 3 Zrotation Yrotation Xrotation
					JOINT RightShoulder
					{
						OFFSET -3.30316 1.18853 0.11175
CHANNELS 3 Zrotation Xrotation Yrotation
						JOINT RightElbow
						{
OFFSET 0 -5.737990 0.000000
CHANNELS 3 Zrotation Xrotation Yrotation
							JOINT RightWrist
							{
OFFSET 0 -3.579160 -0.000000
CHANNELS 3 Zrotation Xrotation Yrotation
								JOINT rhand
								{
									OFFSET 0 0 0
CHANNELS 3 Zrotation Xrotation Yrotation
									JOINT RFingers
									{
OFFSET 0 -0.615580 0.000000
CHANNELS 3 Zrotation Xrotation Yrotation
										End Site
										{
OFFSET 0 -0.496290 0.000000
										}
									}
								}
								JOINT RThumb
								{
OFFSET 0 0.000000 0.000000
CHANNELS 3 Zrotation Xrotation Yrotation
									End Site
									{
OFFSET 0 -0.503870 0.503870
									}
								}
							}
						}
					}
				}
			}
		}
	}
}
MOTION
Frames: 10
Frame Time: 0.008333333333333333
13.822267 17.580517 23.021490 82.853164 -81.571771 -1155.327262 0.000000 0.000000 0.000000 -16.734399 -11.407200 -24.639108 3.730017 11.792160 35.000722 0.540200 -4.465987 -13.087488 0.181272 -2.701172 -7.450307 0.000000 0.000000 0.000000 12.767867 7.152026 -15.091016 -11.215157 -18.038009 63.477504 -0.371719 -6.732241 -15.922345 -1.339480 -7.266567 20.534396 -8.116461 0.750742 4.187829 0.005896 0.439724 -3.005176 4.525179 0.520149 -5.579217 0.192690 -9.453275 -1.097764 4.851529 -12.827714 2.896395 1.246530 -6.352240 1.412369 0.000000 0.000000 0.000000 10.375726 25.036060 -27.876426 15.228068 -24.462861 3.319793 1.137184 -17.366985 18.442830 0.000000 0.000000 0.000000 -7.125000 0.000000 0.000000 -17.489797 12.123622 -14.119796 0.000000 0.000000 0.000000 -5.686621 14.416884 25.814339 -27.533904 -38.683421 -9.831059 -30.107285 3.565677 33.911177 0.000000 0.000000 0.000000 7.125000 0.000000 0.000000 3.538008 67.801138 -1.929463
13.127483 17.703543 23.914994 159.918803 -69.393918 -1230.325743 0.000000 0.000000 0.000000 -20.751140 -6.411756 -20.978356 3.625252 11.644141 34.484652 1.499041 5.664765 -25.776979 0.244830 -3.184051 -8.791479 0.000000 0.000000 0.000000 14.511209 -1.248440 -36.718314 -12.525832 -18.604092 67.646048 -0.759893 -3.491723 -18.098883 -0.006160 -0.500271 1.374782 -7.089786 -0.126437 4.473293 -0.298022 -0.736923 -3.378302 3.738953 -0.091832 -5.977640 2.626626 -7.760450 -2.888545 2.927788 -10.682402 4.329090 0.215259 -5.238019 1.863076 0.000000 0.000000 0.000000 19.776709 20.896863 -27.697797 17.255467 -27.193269 4.203389 11.865804 -27.404719 20.619075 0.000000 0.000000 0.000000 -7.125000 0.000000 0.000000 -10.634857 9.236499 -8.949731 0.000000 0.000000 0.000000 -7.511753 15.057284 32.094477 -24.932773 -36.135143 -8.250221 -27.423166 6.705691 33.032781 0.000000 0.000000 0.000000 7.125000 0.000000 0.000000 6.503103 66.094999 -3.317269
12.332840 17.719295 23.885017 169.039893 -53.082700 -1239.496227 0.000000 0.000000 0.000000 -25.275875 -2.250035 -11.804581 2.349959 9.559845 27.562750 3.418562 9.895126 -39.326822 0.244913 3.181995 8.786115 0.000000 0.000000 0.000000 14.712825 0.652914 -44.204192 -8.679348 -16.596116 54.973321 -0.891392 -5.563486 -20.687440 -0.018860 -0.757916 2.083940 -9.627657 -0.976554 4.294697 0.112096 -2.023050 -3.322184 5.705457 -0.638052 -5.597700 2.789162 -4.767510 -5.014489 3.412949 -6.843394 4.757670 0.363178 -3.282626 2.392404 0.000000 0.000000 0.000000 25.708949 20.248018 -29.801677 18.770486 -29.132505 4.918641 20.952057 -40.737587 19.959059 0.000000 0.000000 0.000000 -7.125000 0.000000 0.000000 -4.779487 8.790206 -4.007660 0.000000 0.000000 0.000000 -7.881701 16.652958 29.679770 -25.310840 -36.520010 -8.474277 -30.852609 -1.247120 32.486648 0.000000 0.000000 0.000000 7.125000 0.000000 0.000000 1.597738 66.537370 -0.827897
11.655374 17.812392 23.342121 172.262275 -42.906954 -1242.316795 0.000000 0.000000 0.000000 -27.516189 -0.349650 -3.265815 1.226035 7.021584 19.779740 4.655668 14.595204 -47.252461 0.109357 2.073060 5.709667 0.000000 0.000000 0.000000 12.111770 7.608710 -43.516437 -3.643018 -11.668451 34.570323 -0.832302 -13.004881 -26.396414 -0.217581 -3.000814 8.281122 -8.195049 -1.647411 5.488015 0.545743 -2.880197 -3.117300 5.473544 -1.090912 -5.945302 2.487502 -2.998062 -6.976675 2.744664 -4.475151 4.919360 0.249305 -2.099114 2.791686 0.000000 0.000000 0.000000 23.497351 11.876482 -29.776785 18.869869 -29.256405 4.967207 20.714737 -40.894776 21.499059 0.000000 0.000000 0.000000 -7.125000 0.000000 0.000000 -5.052556 7.216617 -4.395914 0.000000 0.000000 0.000000 -6.645111 18.785972 24.876824 -24.876215 -36.076946 -8.217015 -28.118906 -1.403459 34.883720 0.000000 0.000000 0.000000 7.125000 0.000000 0.000000 7.037122 68.184234 -3.925699
11.132173 17.631349 21.989995 172.590169 -41.884750 -1244.995209 0.000000 0.000000 0.000000 -23.974669 5.719950 6.798773 0.545482 4.728576 13.136555 2.657247 16.557030 -40.084256 0.223271 -3.041722 -8.394884 0.000000 0.000000 0.000000 15.655644 2.759608 -42.660197 -4.333058 -12.590510 37.854859 -0.430182 -16.605054 -27.182284 -0.489026 -4.478663 12.428205 -7.688251 -2.977631 8.564759 1.050660 -4.760466 -1.818323 6.052434 -2.046614 -6.018721 2.049980 -2.699507 -8.660504 1.992324 -4.003128 4.534654 0.079276 -1.885422 2.969658 0.000000 0.000000 0.000000 16.553760 5.554293 -30.943756 31.905255 -42.465575 12.678855 19.979746 -40.183482 22.016413 0.000000 0.000000 0.000000 -7.125000 0.000000 0.000000 -5.559309 6.791260 -4.886821 0.000000 0.000000 0.000000 -6.824986 20.439568 27.686620 -20.160611 -30.834948 -5.613618 -18.556457 3.594214 30.822734 0.000000 0.000000 0.000000 7.125000 0.000000 0.000000 15.421591 61.508022 -6.280182
10.624230 17.582547 20.179458 176.136768 -31.031858 -1244.143539 0.000000 0.000000 0.000000 -21.608681 7.109655 -6.025457 3.863700 11.976467 35.649120 -0.787695 24.206767 -28.800354 0.728472 5.453377 15.206487 0.000000 0.000000 0.000000 21.324550 5.985598 -41.419042 -4.690162 -13.026136 39.466388 -0.365558 -11.328022 -20.522815 -1.114776 -6.707499 18.851654 -6.051994 -1.127908 5.309898 0.374461 -2.034864 -3.517764 4.010112 -0.743589 -6.455336 3.286982 -1.998534 -7.135524 1.061169 -3.103144 5.309072 -0.373855 -1.445894 2.909364 0.000000 0.000000 0.000000 13.361655 9.374152 -40.691240 48.847681 -52.520026 25.256742 14.472646 -32.210355 24.483900 0.000000 0.000000 0.000000 -7.125000 0.000000 0.000000 -9.154985 5.063089 -8.421820 0.000000 0.000000 0.000000 -5.695134 19.597927 26.970692 -15.366805 -24.654510 -3.377437 -15.349507 6.087067 30.858995 0.000000 0.000000 0.000000 7.125000 0.000000 0.000000 18.949932 60.759296 -7.432688
10.131430 17.624821 18.276565 179.259953 -21.333282 -1247.733806 0.000000 0.000000 0.000000 -18.947369 -0.708343 -24.668955 10.923557 17.897045 62.532626 0.162512 -2.334767 -7.158445 0.796055 -5.694993 -15.901986 0.000000 0.000000 0.000000 26.395455 9.675342 -27.118749 -3.835746 -11.938589 35.514997 -1.164740 -9.269750 -25.688171 -0.355098 -3.824072 10.582782 -4.201239 0.374161 6.025176 -0.341734 0.053552 -3.399625 1.996840 0.194561 -6.956646 4.151604 -0.388499 -7.322966 -0.385943 -0.958638 6.514206 -0.908943 -0.396222 3.384149 0.000000 0.000000 0.000000 11.901501 14.652880 -41.201320 42.668406 -49.571707 20.448556 17.780929 -30.852359 22.714798 0.000000 0.000000 0.000000 -7.125000 0.000000 0.000000 -6.994085 6.395331 -6.216903 0.000000 0.000000 0.000000 -8.134397 17.729924 36.547596 -22.456934 -33.486455 -6.837677 -16.107641 1.957953 29.891442 0.000000 0.000000 0.000000 7.125000 0.000000 0.000000 17.426152 60.018789 -6.516790
9.558993 17.536068 16.137412 181.205828 -14.155112 -1248.219232 0.000000 0.000000 0.000000 -12.665791 -16.724401 -40.405159 9.402448 17.057643 57.468528 0.659566 -2.090328 -14.774052 0.726874 -5.421474 -15.121037 0.000000 0.000000 0.000000 29.954225 12.393169 -12.994953 -2.670197 -10.139788 29.431752 -1.700198 -8.968756 -29.271976 -0.026808 -0.981930 2.699774 -2.215969 1.333126 5.138422 -0.947535 1.469523 -3.844673 0.092396 0.772910 -6.933201 4.527020 1.019103 -7.296480 -1.756946 1.015467 5.547879 -1.322173 0.534738 3.117026 0.000000 0.000000 0.000000 12.515986 20.028977 -35.284993 27.197106 -38.363422 9.622466 17.619219 -28.642934 21.148538 0.000000 0.000000 0.000000 -7.125000 0.000000 0.000000 -6.994380 8.021699 -5.993737 0.000000 0.000000 0.000000 -10.954245 16.167019 41.969276 -37.981470 -46.825431 -16.952732 -18.940149 -1.472595 35.053388 0.000000 0.000000 0.000000 7.125000 0.000000 0.000000 18.728987 65.623205 -9.515466
8.993383 17.279165 13.631774 182.705761 -8.145014 -1249.434891 0.000000 0.000000 0.000000 -9.961390 -16.835500 -44.277865 3.552410 11.539682 34.122418 0.586629 -1.693887 -13.988398 2.137109 -9.138538 -26.234959 0.000000 0.000000 0.000000 32.368264 7.891788 6.032615 -0.723924 -5.434814 15.153481 -1.680312 -7.815065 -28.375660 -0.007672 -0.563101 1.547395 -1.136668 2.068919 3.336191 -1.127071 2.592704 -3.108905 -0.727385 1.280335 -5.083497 4.623596 2.322034 -6.545846 -2.927085 2.849153 3.719508 -1.631450 1.400247 2.451205 0.000000 0.000000 0.000000 13.808700 22.320591 -22.727241 14.532127 -23.489221 3.037631 13.977368 -18.890180 19.999545 0.000000 0.000000 0.000000 -7.125000 0.000000 0.000000 -9.269126 9.633588 -7.692687 0.000000 0.000000 0.000000 -13.259397 14.247531 44.669705 -45.935200 -51.218430 -22.965543 -17.061248 0.431020 36.075378 0.000000 0.000000 0.000000 7.125000 0.000000 0.000000 21.960533 66.037585 -11.390478
8.245755 17.132239 10.888143 180.902609 -6.503587 -1251.963255 0.000000 0.000000 0.000000 -15.514134 -17.899044 -38.223618 5.340647 13.757374 42.274217 0.217420 1.221401 -9.337005 0.136321 -2.379476 -6.555634 0.000000 0.000000 0.000000 26.356349 -0.876732 5.117167 -3.087203 -10.829462 31.712659 -0.375076 -3.797984 -13.564351 -1.012804 6.397914 -17.945063 -2.615031 1.868330 3.127100 -1.673600 2.212689 -2.785421 -0.421411 1.122709 -4.666771 5.242041 2.858441 -6.131860 -3.160041 3.555552 4.572505 -1.792219 1.762824 2.714685 0.000000 0.000000 0.000000 15.218405 22.532710 -10.633660 9.862748 -16.524623 1.435638 14.284442 -9.185108 18.044222 0.000000 0.000000 0.000000 -7.125000 0.000000 0.000000 -9.020239 11.573351 -7.117964 0.000000 0.000000 0.000000 -12.271136 18.433232 40.374275 -38.408716 -47.096978 -17.264839 -18.019605 2.079316 33.099476 0.000000 0.000000 0.000000 7.125000 0.000000 0.000000 17.878417 63.544908 -8.180173
